<svg id="_x33_0" enable-background="new 0 0 64 64" height="512" viewBox="0 0 64 64" width="512" xmlns="http://www.w3.org/2000/svg"><g><g><path d="m51.877 33c.131.272.164.597.044.903l-2.139 5.456c-.204.519-.745.772-1.229.574l-5.925-2.429c-.517-.212-.767-.852-.549-1.407l.03-.075-4.109 1.684v9.294c0 .28-.038.551-.083.818l.083.182h15c2.761 0 5-2.239 5-5v-10z" fill="#f0bc5e"/></g><g><path d="m31.877 37c.131.272.164.597.044.903l-2.139 5.456c-.204.519-.745.772-1.229.574l-5.925-2.429c-.517-.212-.767-.852-.549-1.407l.03-.075-4.661 1.911c-.484.198-1.025-.054-1.229-.574l-1.71-4.359h-6.509v10c0 2.761 2.239 5 5 5h20c2.761 0 5-2.239 5-5v-10z" fill="#f0bc5e"/></g><g><path d="m14.236 47c-.998 0-1.895-.555-2.341-1.447l-1.789.895c.788 1.575 2.37 2.553 4.13 2.553h17.528c1.76 0 3.343-.978 4.13-2.553l-1.789-.895c-.446.892-1.343 1.447-2.341 1.447z"/><path d="m63 21c0-5.514-4.486-10-10-10s-10 4.486-10 10h-14c-1.103 0-2 .897-2 2v2h-6c0-5.514-4.486-10-10-10s-10 4.486-10 10c0 4.092 2.473 7.613 6 9.159v12.841c0 3.309 2.691 6 6 6h20c2.607 0 4.824-1.673 5.65-4h14.35c3.309 0 6-2.691 6-6v-14.019c2.423-1.827 4-4.719 4-7.981zm-60 4c0-4.411 3.589-8 8-8s8 3.589 8 8h-2c0-3.309-2.691-6-6-6s-6 2.691-6 6c0 1.771.776 3.36 2 4.46v2.458c-2.387-1.386-4-3.965-4-6.918zm21.853 12.732-.394-1.005.609-1.734 5.912 2.42c.012.013.034.068.012.125l-2.057 5.47-5.74-2.35.558-.229c1.024-.42 1.518-1.63 1.1-2.697zm-1.863.73c.022.056 0 .112.002.116l-5.844 2.416-2.139-5.456c-.022-.056 0-.112-.002-.116l5.851-2.398zm-11.99-5.462c-.692 0-1.359-.097-2-.263v-2.087c.627.222 1.298.35 2 .35 2.607 0 4.824-1.673 5.65-4h2.087c-.892 3.445-4.018 6-7.737 6zm-4-8c0-.942.341-1.798.888-2.482l1.862 2.482h-.75c-.802 0-1.49.477-1.808 1.159-.113-.369-.192-.753-.192-1.159zm7.444 2c-.694 1.19-1.97 2-3.444 2-.732 0-1.409-.212-2-.556v-1.444zm-2.221-2 1.812-2.576c.593.698.965 1.59.965 2.576zm-1.249-1.701-1.496-1.995c.47-.194.983-.304 1.522-.304.495 0 .965.102 1.403.268zm26.026 23.701c0 2.206-1.794 4-4 4h-20c-2.206 0-4-1.794-4-4v-12.202c.646.132 1.315.202 2 .202.731 0 1.442-.084 2.129-.234-.167.468-.179.999.018 1.502l2.139 5.456c.202.514.583.913 1.075 1.123.24.102.493.153.745.153.243 0 .487-.047.719-.143l3.404-1.395c.211.424.558.777 1.019.966l5.926 2.429c.233.096.476.143.72.143.252 0 .505-.051.745-.154.492-.21.873-.609 1.075-1.123l2.139-5.456c.418-1.067-.076-2.277-1.101-2.697l-5.926-2.429c-.472-.194-.993-.189-1.464.011-.412.176-.74.49-.956.888l-.692-1.765c-.202-.514-.583-.913-1.075-1.123-.47-.201-.991-.206-1.464-.011l-2.017.827c1.312-1.347 2.251-3.058 2.641-4.969h16.201zm2-17.22 1.851-.774 2.139 5.456c.022.056 0 .112.002.116l-3.992 1.637zm5.853 3.952-.394-1.005.609-1.734 5.912 2.42c.012.013.034.068.012.125l-2.057 5.47-5.74-2.35.558-.229c1.024-.42 1.518-1.63 1.1-2.697zm12.147 9.268c0 2.206-1.794 4-4 4h-14v-2h12.764c1.76 0 3.343-.978 4.13-2.553l-1.789-.895c-.446.893-1.343 1.448-2.341 1.448h-12.764v-4.624l2.229-.914c.211.424.558.777 1.019.966l5.926 2.429c.233.096.476.143.72.143.252 0 .505-.051.745-.154.492-.21.873-.609 1.075-1.123l2.139-5.456c.418-1.067-.076-2.277-1.101-2.697l-5.926-2.429c-.473-.193-.993-.189-1.464.011-.412.176-.74.49-.956.888l-.692-1.765c-.202-.514-.583-.913-1.075-1.123-.471-.201-.99-.205-1.464-.011l-1.175.482v-.623c0-1.103-.897-2-2-2h-8v-2h14.202c.929 4.559 4.969 8 9.798 8 1.422 0 2.774-.303 4-.841zm-.965-24.576c.593.698.965 1.59.965 2.576h-2.777zm-3.061.875-1.496-1.995c.47-.194.983-.304 1.522-.304.495 0 .965.102 1.403.268zm-3.086-.781 1.862 2.482h-2.75c0-.942.341-1.798.888-2.482zm6.556 4.482c-.694 1.19-1.97 2-3.444 2s-2.75-.81-3.444-2zm-3.444 4c1.538 0 2.937-.586 4-1.54v2.458c-1.178.684-2.542 1.082-4 1.082-3.719 0-6.845-2.555-7.737-6h2.087c.826 2.327 3.043 4 5.65 4zm5.86-4.722c.09-.413.14-.839.14-1.278 0-3.309-2.691-6-6-6s-6 2.691-6 6h-2c0-4.411 3.589-8 8-8s8 3.589 8 8c0 2.021-.759 3.864-2 5.274v-3.274c0-.255-.053-.498-.14-.722z"/></g></g></svg>