<svg id="Capa_1" enable-background="new 0 0 512 512" height="512" viewBox="0 0 512 512" width="512" xmlns="http://www.w3.org/2000/svg"><g><g><g><g><g><g><g><circle cx="256" cy="256" fill="#7a3eb4" r="256"/></g></g></g></g></g></g><path d="m271.163 187.99-100.284-100.284v25.691l-26.859 1.168 66.623 66.623-14.717 39.43-59.702-59.702v16.136h-16.136l59.276 59.276-11.909 205.294 69.685 69.685c6.228.453 12.516.693 18.86.693 141.385 0 256-114.615 256-256 0-18.932-2.074-37.377-5.973-55.137l-68.253-68.253z" fill="#613393"/><g><g><g><g><g><path d="m369.895 64.73 33.94 33.94-14.727 27.758-30.562 17.531-26.869-41.012z" fill="#d2d5f6"/></g></g></g><g><g><g><path d="m403.835 98.67 33.94 33.94-38.217 38.217-41.012-26.868z" fill="#b5b9f1"/></g></g></g></g><g><g><g><g><path d="m331.677 102.947 33.941 33.94-16.219 32.515-38.021 21.725-63.141-71.719z" fill="#b5b9f1"/></g></g></g><g><path d="m365.618 136.887 33.94 33.94-16.462 83.441-71.718-63.141z" fill="#989eec"/></g></g><g><g><g><g><path d="m233.039 134.606 67.43 67.43-69.003 90.238-117.298 96.062-7.091-107.071z" fill="#b5b9f1"/></g></g></g><g><path d="m300.469 202.036 67.429 67.429-146.659 125.962-107.071-7.091z" fill="#989eec"/></g></g><g><path d="m107.077 281.265-46.195 53.785 53.286 53.286 34.008-15.72 15.982-34.27z" fill="#d2d5f6"/><path d="m114.168 388.336 53.286 53.286 53.785-46.195-57.081-57.081z" fill="#b5b9f1"/></g><g><g><g><g><path d="m297.589 204.915-73.562-73.562 17.955-17.956 73.563 73.563 20.071 38.447z" fill="#00ddc1"/></g></g></g><g><g><g><path d="m330.652 180.702h25.393v104.033h-25.393z" fill="#00baa0" transform="matrix(.707 -.707 .707 .707 -63.993 310.946)"/></g></g></g></g></g><path d="m196.57 113.397-18.155 7.537-7.536 18.154-7.536-18.154-18.155-7.537 18.155-7.536 7.536-18.155 7.536 18.155z" fill="#ffea98"/><g fill="#fd5"><path d="m463.466 240.252-18.155 7.536-7.536 18.155-7.537-18.155-18.154-7.536 18.154-7.536 7.537-18.155 7.536 18.155z"/><path d="m284.086 437.187-12.666 5.259-5.258 12.666-5.259-12.666-12.666-5.259 12.666-5.258 5.259-12.666 5.258 12.666z"/><path d="m288.741 392.076-10.299 4.275-4.275 10.299-4.275-10.299-10.298-4.275 10.298-4.275 4.275-10.298 4.275 10.298z"/></g><path d="m152.36 177.052-11.403 4.734-4.733 11.403-4.734-11.403-11.403-4.734 11.403-4.733 4.734-11.403 4.733 11.403z" fill="#ffea98"/></g></svg>